<svg width="180" height="180" xmlns="http://www.w3.org/2000/svg">
  <defs>
    <radialGradient id="burstGradient" cx="50%" cy="50%" r="70%">
      <stop offset="0%" style="stop-color:#fff2cc;stop-opacity:1" />
      <stop offset="30%" style="stop-color:#ffb74d;stop-opacity:1" />
      <stop offset="70%" style="stop-color:#f7931e;stop-opacity:1" />
      <stop offset="100%" style="stop-color:#ff6b35;stop-opacity:1" />
    </radialGradient>
    <filter id="energyGlow">
      <feGaussianBlur stdDeviation="3" result="coloredBlur"/>
      <feMerge> 
        <feMergeNode in="coloredBlur"/>
        <feMergeNode in="SourceGraphic"/>
      </feMerge>
    </filter>
  </defs>
  
  <!-- 中心爆炸效果 -->
  <circle cx="90" cy="90" r="30" fill="url(#burstGradient)" filter="url(#energyGlow)"/>
  
  <!-- 射线 -->
  <g transform="translate(90,90)">
    <!-- 主射线 -->
    <line x1="0" y1="-70" x2="0" y2="-35" stroke="#ff6b35" stroke-width="4" opacity="0.8"/>
    <line x1="70" y1="0" x2="35" y2="0" stroke="#ff6b35" stroke-width="4" opacity="0.8"/>
    <line x1="0" y1="70" x2="0" y2="35" stroke="#ff6b35" stroke-width="4" opacity="0.8"/>
    <line x1="-70" y1="0" x2="-35" y2="0" stroke="#ff6b35" stroke-width="4" opacity="0.8"/>
    
    <!-- 对角射线 -->
    <line x1="50" y1="-50" x2="25" y2="-25" stroke="#f7931e" stroke-width="3" opacity="0.7"/>
    <line x1="50" y1="50" x2="25" y2="25" stroke="#f7931e" stroke-width="3" opacity="0.7"/>
    <line x1="-50" y1="50" x2="-25" y2="25" stroke="#f7931e" stroke-width="3" opacity="0.7"/>
    <line x1="-50" y1="-50" x2="-25" y2="-25" stroke="#f7931e" stroke-width="3" opacity="0.7"/>
    
    <!-- 短射线 -->
    <g opacity="0.6">
      <line x1="0" y1="-60" x2="0" y2="-45" stroke="#ffb74d" stroke-width="2" transform="rotate(22.5)"/>
      <line x1="0" y1="-60" x2="0" y2="-45" stroke="#ffb74d" stroke-width="2" transform="rotate(67.5)"/>
      <line x1="0" y1="-60" x2="0" y2="-45" stroke="#ffb74d" stroke-width="2" transform="rotate(112.5)"/>
      <line x1="0" y1="-60" x2="0" y2="-45" stroke="#ffb74d" stroke-width="2" transform="rotate(157.5)"/>
      <line x1="0" y1="-60" x2="0" y2="-45" stroke="#ffb74d" stroke-width="2" transform="rotate(202.5)"/>
      <line x1="0" y1="-60" x2="0" y2="-45" stroke="#ffb74d" stroke-width="2" transform="rotate(247.5)"/>
      <line x1="0" y1="-60" x2="0" y2="-45" stroke="#ffb74d" stroke-width="2" transform="rotate(292.5)"/>
      <line x1="0" y1="-60" x2="0" y2="-45" stroke="#ffb74d" stroke-width="2" transform="rotate(337.5)"/>
    </g>
  </g>
  
  <!-- 装饰性粒子 -->
  <circle cx="140" cy="50" r="3" fill="#ff6b35" opacity="0.7">
    <animate attributeName="r" values="3;6;3" dur="3s" repeatCount="indefinite"/>
    <animate attributeName="opacity" values="0.7;0.3;0.7" dur="3s" repeatCount="indefinite"/>
  </circle>
  <circle cx="40" cy="140" r="2" fill="#f7931e" opacity="0.8">
    <animate attributeName="r" values="2;4;2" dur="2s" repeatCount="indefinite"/>
  </circle>
</svg>
