<svg width="150" height="180" xmlns="http://www.w3.org/2000/svg">
  <defs>
    <linearGradient id="leafGradient" x1="0%" y1="0%" x2="100%" y2="100%">
      <stop offset="0%" style="stop-color:#81c784;stop-opacity:1" />
      <stop offset="50%" style="stop-color:#4caf50;stop-opacity:1" />
      <stop offset="100%" style="stop-color:#2e7d32;stop-opacity:1" />
    </linearGradient>
  </defs>
  
  <!-- 大叶子 -->
  <path d="M75 20 Q120 50 110 120 Q100 150 75 160 Q50 150 40 120 Q30 50 75 20 Z" 
        fill="url(#leafGradient)" stroke="#2e7d32" stroke-width="1"/>
  
  <!-- 叶脉 -->
  <path d="M75 30 Q85 60 80 100 Q78 130 75 150" 
        stroke="#2e7d32" stroke-width="2" fill="none"/>
  <path d="M75 50 Q90 65 95 80" 
        stroke="#2e7d32" stroke-width="1" fill="none"/>
  <path d="M75 70 Q90 85 92 100" 
        stroke="#2e7d32" stroke-width="1" fill="none"/>
  <path d="M75 50 Q60 65 55 80" 
        stroke="#2e7d32" stroke-width="1" fill="none"/>
  <path d="M75 70 Q60 85 58 100" 
        stroke="#2e7d32" stroke-width="1" fill="none"/>
  
  <!-- 小叶子装饰 -->
  <path d="M30 40 Q45 50 42 70 Q40 80 30 82 Q20 80 18 70 Q15 50 30 40 Z" 
        fill="#81c784" opacity="0.8"/>
  <path d="M120 140 Q135 150 132 170 Q130 180 120 182 Q110 180 108 170 Q105 150 120 140 Z" 
        fill="#81c784" opacity="0.8"/>
</svg>
