<svg width="160" height="160" xmlns="http://www.w3.org/2000/svg">
  <defs>
    <linearGradient id="gearGradient" x1="0%" y1="0%" x2="100%" y2="100%">
      <stop offset="0%" style="stop-color:#ba68c8;stop-opacity:1" />
      <stop offset="50%" style="stop-color:#7209b7;stop-opacity:1" />
      <stop offset="100%" style="stop-color:#4a154b;stop-opacity:1" />
    </linearGradient>
    <filter id="shadow">
      <feDropShadow dx="2" dy="2" stdDeviation="2" flood-color="#4a154b" flood-opacity="0.3"/>
    </filter>
  </defs>
  
  <!-- 大齿轮 -->
  <g transform="translate(80,80)" filter="url(#shadow)">
    <!-- 齿轮主体 -->
    <circle r="40" fill="url(#gearGradient)"/>
    <circle r="25" fill="none" stroke="#e1bee7" stroke-width="2"/>
    
    <!-- 齿轮齿 -->
    <g>
      <rect x="-3" y="-45" width="6" height="10" fill="url(#gearGradient)"/>
      <rect x="-3" y="35" width="6" height="10" fill="url(#gearGradient)"/>
      <rect x="35" y="-3" width="10" height="6" fill="url(#gearGradient)"/>
      <rect x="-45" y="-3" width="10" height="6" fill="url(#gearGradient)"/>
      
      <!-- 对角齿 -->
      <g transform="rotate(45)">
        <rect x="-3" y="-45" width="6" height="10" fill="url(#gearGradient)"/>
        <rect x="-3" y="35" width="6" height="10" fill="url(#gearGradient)"/>
        <rect x="35" y="-3" width="10" height="6" fill="url(#gearGradient)"/>
        <rect x="-45" y="-3" width="10" height="6" fill="url(#gearGradient)"/>
      </g>
    </g>
    
    <!-- 中心孔 -->
    <circle r="8" fill="#4a154b"/>
  </g>
  
  <!-- 小齿轮 -->
  <g transform="translate(130,30)" filter="url(#shadow)">
    <circle r="20" fill="url(#gearGradient)" opacity="0.8"/>
    <circle r="12" fill="none" stroke="#e1bee7" stroke-width="1"/>
    
    <!-- 小齿轮齿 -->
    <g>
      <rect x="-2" y="-22" width="4" height="6" fill="url(#gearGradient)"/>
      <rect x="-2" y="16" width="4" height="6" fill="url(#gearGradient)"/>
      <rect x="16" y="-2" width="6" height="4" fill="url(#gearGradient)"/>
      <rect x="-22" y="-2" width="6" height="4" fill="url(#gearGradient)"/>
    </g>
    
    <circle r="4" fill="#4a154b"/>
  </g>
</svg>
