<svg width="180" height="140" xmlns="http://www.w3.org/2000/svg">
  <defs>
    <linearGradient id="circuitGradient" x1="0%" y1="0%" x2="100%" y2="100%">
      <stop offset="0%" style="stop-color:#ba68c8;stop-opacity:0.8" />
      <stop offset="50%" style="stop-color:#7209b7;stop-opacity:1" />
      <stop offset="100%" style="stop-color:#4a154b;stop-opacity:1" />
    </linearGradient>
    <filter id="glow">
      <feGaussianBlur stdDeviation="2" result="coloredBlur"/>
      <feMerge> 
        <feMergeNode in="coloredBlur"/>
        <feMergeNode in="SourceGraphic"/>
      </feMerge>
    </filter>
  </defs>
  
  <!-- 电路路径 -->
  <path d="M20 70 L60 70 L60 40 L100 40 L100 70 L140 70 L140 100 L160 100" 
        stroke="url(#circuitGradient)" stroke-width="3" fill="none" filter="url(#glow)"/>
  
  <!-- 电路节点 -->
  <circle cx="60" cy="70" r="4" fill="#7209b7"/>
  <circle cx="100" cy="40" r="4" fill="#7209b7"/>
  <circle cx="100" cy="70" r="4" fill="#7209b7"/>
  <circle cx="140" cy="70" r="4" fill="#7209b7"/>
  <circle cx="140" cy="100" r="4" fill="#7209b7"/>
  
  <!-- 芯片元件 -->
  <rect x="80" y="60" width="40" height="20" fill="none" stroke="#7209b7" stroke-width="2" rx="2"/>
  <rect x="85" y="65" width="30" height="10" fill="url(#circuitGradient)" opacity="0.3" rx="1"/>
  
  <!-- 连接器 -->
  <rect x="15" y="67" width="10" height="6" fill="#7209b7" rx="1"/>
  <rect x="155" y="97" width="10" height="6" fill="#7209b7" rx="1"/>
  
  <!-- 装饰性电路元素 -->
  <line x1="60" y1="55" x2="60" y2="85" stroke="#ba68c8" stroke-width="1" opacity="0.6"/>
  <line x1="140" y1="55" x2="140" y2="115" stroke="#ba68c8" stroke-width="1" opacity="0.6"/>
  
  <!-- 数据流效果点 -->
  <circle cx="30" cy="70" r="1.5" fill="#e1bee7" opacity="0.8">
    <animate attributeName="r" values="1.5;3;1.5" dur="2s" repeatCount="indefinite"/>
    <animate attributeName="opacity" values="0.8;0.3;0.8" dur="2s" repeatCount="indefinite"/>
  </circle>
</svg>
