<svg width="180" height="120" xmlns="http://www.w3.org/2000/svg">
  <defs>
    <linearGradient id="buildingGradient" x1="0%" y1="0%" x2="0%" y2="100%">
      <stop offset="0%" style="stop-color:#d9e2f3;stop-opacity:0.9" />
      <stop offset="100%" style="stop-color:#1f4e79;stop-opacity:1" />
    </linearGradient>
  </defs>
  
  <!-- 天空背景 -->
  <rect width="180" height="120" fill="#f8f9fa" opacity="0.3"/>
  
  <!-- 建筑物1 -->
  <rect x="20" y="60" width="40" height="60" fill="url(#buildingGradient)"/>
  <rect x="25" y="70" width="8" height="8" fill="#4472c4" opacity="0.7"/>
  <rect x="37" y="70" width="8" height="8" fill="#4472c4" opacity="0.7"/>
  <rect x="25" y="85" width="8" height="8" fill="#4472c4" opacity="0.7"/>
  <rect x="37" y="85" width="8" height="8" fill="#4472c4" opacity="0.7"/>
  
  <!-- 建筑物2 -->
  <rect x="70" y="40" width="50" height="80" fill="url(#buildingGradient)"/>
  <rect x="75" y="50" width="10" height="10" fill="#4472c4" opacity="0.7"/>
  <rect x="90" y="50" width="10" height="10" fill="#4472c4" opacity="0.7"/>
  <rect x="105" y="50" width="10" height="10" fill="#4472c4" opacity="0.7"/>
  <rect x="75" y="70" width="10" height="10" fill="#4472c4" opacity="0.7"/>
  <rect x="90" y="70" width="10" height="10" fill="#4472c4" opacity="0.7"/>
  <rect x="105" y="70" width="10" height="10" fill="#4472c4" opacity="0.7"/>
  
  <!-- 建筑物3 -->
  <rect x="130" y="70" width="35" height="50" fill="url(#buildingGradient)"/>
  <rect x="135" y="80" width="6" height="6" fill="#4472c4" opacity="0.7"/>
  <rect x="145" y="80" width="6" height="6" fill="#4472c4" opacity="0.7"/>
  <rect x="155" y="80" width="6" height="6" fill="#4472c4" opacity="0.7"/>
  <rect x="135" y="95" width="6" height="6" fill="#4472c4" opacity="0.7"/>
  <rect x="145" y="95" width="6" height="6" fill="#4472c4" opacity="0.7"/>
  <rect x="155" y="95" width="6" height="6" fill="#4472c4" opacity="0.7"/>
</svg>
